# File created by Blade
# Date/Time:  Tue Sep 28 14:35:47 2010
#---------------------------------------------------------
:version 1.10
:name HOM
:units
  mass 1.0
  length 1.000000
  angle deg
:documentation
     Acclaim Skeleton File
:root
   axis xyz
   order TX TY TZ RX RY RZ
   position 0.000000 0.000000 0.000000
   orientation 0 0 0
:bonedata
   begin
      id 1
      name LeftUpLeg_dum
      direction 1.000000 0.000000 0.000000
      length 3.677894
      axis 0.0 0.0 0.0 xyz
   end
   begin
      id 2
      name RightUpLeg_dum
      direction -1.000000 0.000000 0.000000
      length 3.677894
      axis 0.0 0.0 0.0 xyz
   end
   begin
      id 3
      name Spine_dum
      direction 0.000000 1.000000 0.000000
      length 0.039370
      axis 0.0 0.0 0.0 xyz
   end
   begin
      id 4
      name LeftUpLeg
      direction 0.000000 -1.000000 0.000000
      length 18.389491
      axis 0.0 0.0 0.0 xyz
      dof rx ry rz
   end
   begin
      id 5
      name LeftLeg
      direction 0.000000 -1.000000 0.000000
      length 16.918313
      axis 0.0 0.0 0.0 xyz
      dof rx ry rz
   end
   begin
      id 6
      name LeftFoot
      direction 0.000000 -0.258819 0.965926
      length 6.436326
      axis 15.0 0.0 0.0 xyz
      dof rx ry rz
   end
   begin
      id 7
      name LeftToeBase
      direction 0.000000 0.000000 1.000000
      length 2.952750
      axis 0.0 0.0 0.0 xyz
      dof rx ry rz
   end
   begin
      id 8
      name RightUpLeg
      direction 0.000000 -1.000000 0.000000
      length 18.389491
      axis 0.0 0.0 0.0 xyz
      dof rx ry rz
   end
   begin
      id 9
      name RightLeg
      direction 0.000000 -1.000000 0.000000
      length 16.918313
      axis 0.0 0.0 0.0 xyz
      dof rx ry rz
   end
   begin
      id 10
      name RightFoot
      direction 0.000000 -0.258819 0.965926
      length 6.436326
      axis 15.0 0.0 0.0 xyz
      dof rx ry rz
   end
   begin
      id 11
      name RightToeBase
      direction 0.000000 0.000000 1.000000
      length 2.952750
      axis 0.0 0.0 0.0 xyz
      dof rx ry rz
   end
   begin
      id 12
      name Spine
      direction 0.000000 1.000000 0.000000
      length 9.194745
      axis 0.0 0.0 0.0 xyz
      dof rx ry rz
   end
   begin
      id 13
      name Spine1
      direction 0.000000 1.000000 0.000000
      length 0.000000
      axis 0.0 0.0 0.0 xyz
      dof rx ry rz
   end
   begin
      id 14
      name Spine1_dum1
      direction 0.000000 1.000000 0.000000
      length 9.194745
      axis 0.0 0.0 0.0 xyz
   end
   begin
      id 15
      name Spine1_dum2
      direction 0.000000 1.000000 0.000000
      length 9.194745
      axis 0.0 0.0 0.0 xyz
   end
   begin
      id 16
      name Spine1_dum3
      direction 0.000000 1.000000 0.000000
      length 9.194745
      axis 0.0 0.0 0.0 xyz
   end
   begin
      id 17
      name Neck
      direction 0.000000 1.000000 0.000000
      length 4.229598
      axis 0.0 0.0 0.0 xyz
      dof rx ry rz
   end
   begin
      id 18
      name Head
      direction 0.000000 1.000000 0.000000
      length 4.527550
      axis 0.0 0.0 0.0 xyz
      dof rx ry rz
   end
   begin
      id 19
      name LeftShoulder
      direction 1.000000 -0.000004 0.000000
      length 5.516839
      axis 0.0 0.0 -90.0 xyz
      dof rx ry rz
   end
   begin
      id 20
      name LeftArm
      direction 1.000000 -0.000004 0.000000
      length 11.033679
      axis 0.0 0.0 -90.0 xyz
      dof rx ry rz
   end
   begin
      id 21
      name LeftForeArm
      direction 1.000000 -0.000004 0.000000
      length 10.114232
      axis 0.0 0.0 -90.0 xyz
      dof rx ry rz
   end
   begin
      id 22
      name LeftHand
      direction 0.000000 0.000000 0.000000
      length 0.000000
      axis 0.0 0.0 -90.0 xyz
      dof rx ry rz
   end
   begin
      id 23
      name LeftHand_dum1
      direction 0.000000 0.000000 0.000000
      length 0.000000
      axis 0.0 0.0 -90.0 xyz
   end
   begin
      id 24
      name LeftHand_dum2
      direction 1.000000 -0.000004 0.000000
      length 3.937000
      axis 0.0 0.0 -90.0 xyz
   end
   begin
      id 25
      name LeftHandThumb
      direction 0.000000 0.000000 1.000000
      length 3.937000
      axis 0.0 0.0 -90.0 xyz
      dof rx ry rz
   end
   begin
      id 26
      name RightShoulder
      direction -1.000000 -0.000004 0.000000
      length 5.516839
      axis 0.0 0.0 90.0 xyz
      dof rx ry rz
   end
   begin
      id 27
      name RightArm
      direction -1.000000 -0.000004 0.000000
      length 11.033679
      axis 0.0 0.0 90.0 xyz
      dof rx ry rz
   end
   begin
      id 28
      name RightForeArm
      direction -1.000000 -0.000004 0.000000
      length 10.114232
      axis 0.0 0.0 90.0 xyz
      dof rx ry rz
   end
   begin
      id 29
      name RightHand
      direction 0.000000 0.000000 0.000000
      length 0.000000
      axis 0.0 0.0 90.0 xyz
      dof rx ry rz
   end
   begin
      id 30
      name RightHand_dum1
      direction 0.000000 0.000000 0.000000
      length 0.000000
      axis 0.0 0.0 90.0 xyz
   end
   begin
      id 31
      name RightHand_dum2
      direction -1.000000 -0.000004 0.000000
      length 5.393690
      axis 0.0 0.0 90.0 xyz
   end
   begin
      id 32
      name RightHandThumb
      direction 0.000000 0.000000 1.000000
      length 3.937000
      axis 0.0 0.0 90.0 xyz
      dof rx ry rz
   end
:hierarchy
   begin
      root LeftUpLeg_dum RightUpLeg_dum Spine_dum
      LeftUpLeg_dum LeftUpLeg
      RightUpLeg_dum RightUpLeg
      Spine_dum Spine
      LeftUpLeg LeftLeg
      LeftLeg LeftFoot
      LeftFoot LeftToeBase
      RightUpLeg RightLeg
      RightLeg RightFoot
      RightFoot RightToeBase
      Spine Spine1
      Spine1 Spine1_dum1 Spine1_dum2 Spine1_dum3
      Spine1_dum1 Neck
      Spine1_dum2 LeftShoulder
      Spine1_dum3 RightShoulder
      Neck Head
      LeftShoulder LeftArm
      LeftArm LeftForeArm
      LeftForeArm LeftHand
      LeftHand LeftHand_dum1 LeftHand_dum2
      LeftHand_dum1 LeftHandThumb
      RightShoulder RightArm
      RightArm RightForeArm
      RightForeArm RightHand
      RightHand RightHand_dum1 RightHand_dum2
      RightHand_dum1 RightHandThumb
   end

# File created by Blade
# Date/Time:  Tue Sep 28 14:35:42 2010
# Frame Rate: 200.000 fps
#------------------------------------------------------
:FULLY-SPECIFIED
:DEGREES
121
root  -0.400836 37.594763 -81.855844 8.166498 -0.341753 -2.757085
LeftUpLeg  -10.452542 8.375605 2.445182
LeftLeg  18.004936 -0.000000 0.000000
LeftFoot  -3.499112 12.695046 6.424798
LeftToeBase  -11.677961 0.000000 -0.000000
RightUpLeg  -12.554471 -26.865013 8.598676
RightLeg  18.243248 -0.000000 0.000000
RightFoot  -4.948983 4.900543 -17.508617
RightToeBase  -10.883165 0.000000 -0.000000
Spine  -15.147843 -2.906910 0.724376
Spine1  14.301498 -1.639618 3.786208
Neck  12.031848 3.021486 -5.773045
Head  -11.929403 1.545485 2.485642
LeftShoulder  -10.689681 -8.455712 -22.917088
LeftArm  -1.103705 23.362237 -22.990371
LeftForeArm  25.595904 -0.000000 0.000000
LeftHand  6.280072 -12.836720 2.668171
LeftHandThumb  0.000000 -0.000000 0.000000
RightShoulder  0.072191 6.607810 18.646102
RightArm  0.170999 -20.809861 21.182646
RightForeArm  19.675076 -0.000000 0.000000
RightHand  3.363643 7.488555 -1.539775
RightHandThumb  0.000000 -0.000000 0.000000
122
root  -0.433991 37.588256 -81.817973 8.156062 -0.497503 -2.758372
LeftUpLeg  -10.624102 8.552292 2.483320
LeftLeg  18.496391 -0.000000 0.000000
LeftFoot  -3.475789 12.748861 6.403246
LeftToeBase  -12.134701 0.000000 -0.000000
RightUpLeg  -12.487214 -26.832949 8.572625
RightLeg  18.296609 -0.000000 0.000000
RightFoot  -5.147036 5.172386 -17.560235
RightToeBase  -10.458807 0.000000 -0.000000
Spine  -15.141408 -2.894642 0.733737
Spine1  14.326789 -1.632239 3.811117
Neck  12.012332 2.945622 -5.843485
Head  -11.952054 1.511945 2.454433
LeftShoulder  -10.781028 -8.274190 -23.064120
LeftArm  -1.122709 23.752763 -23.389612
LeftForeArm  26.053692 -0.000000 0.000000
LeftHand  6.752553 -12.635360 2.566788
LeftHandThumb  0.000000 -0.000000 0.000000
RightShoulder  0.071611 6.488616 18.779272
RightArm  0.205051 -21.443120 21.606940
RightForeArm  20.304921 -0.000000 0.000000
RightHand  3.142085 7.898758 -1.458336
RightHandThumb  0.000000 -0.000000 0.000000
123
root  -0.459782 37.582452 -81.793386 8.145671 -0.609534 -2.757574
LeftUpLeg  -10.771661 8.827733 2.495591
LeftLeg  18.868312 -0.000000 0.000000
LeftFoot  -3.446076 12.746719 6.690422
LeftToeBase  -12.373643 0.000000 -0.000000
RightUpLeg  -12.443490 -26.838763 8.556902
RightLeg  18.350532 -0.000000 0.000000
RightFoot  -5.257790 5.235216 -17.485697
RightToeBase  -10.829488 0.000000 -0.000000
Spine  -15.130989 -2.867317 0.755492
Spine1  14.365767 -1.615472 3.851614
Neck  11.946612 3.548442 -5.943734
Head  -11.921222 1.947935 2.348947
LeftShoulder  -10.803921 -8.343045 -23.168690
LeftArm  -1.208524 24.536404 -23.766371
LeftForeArm  26.590812 -0.000000 0.000000
LeftHand  6.864181 -12.435323 2.420073
LeftHandThumb  0.000000 -0.000000 0.000000
RightShoulder  0.131941 6.560885 18.914749
RightArm  0.155718 -22.416820 21.999387
RightForeArm  20.671922 -0.000000 0.000000
RightHand  3.732678 8.005788 -1.187409
RightHandThumb  0.000000 -0.000000 0.000000
124
root  -0.492638 37.572235 -81.756112 8.125917 -0.794120 -2.765439
LeftUpLeg  -10.983126 9.049714 2.536316
LeftLeg  19.493212 -0.000000 0.000000
LeftFoot  -3.418846 12.815319 6.952274
LeftToeBase  -12.726996 0.000000 -0.000000
RightUpLeg  -12.386874 -26.873963 8.546222
RightLeg  18.450338 -0.000000 0.000000
RightFoot  -5.379810 5.431683 -17.456075
RightToeBase  -10.672174 0.000000 -0.000000
Spine  -15.128221 -2.848334 0.774982
Spine1  14.411227 -1.606359 3.885073
Neck  11.912894 3.583707 -6.055828
Head  -12.013185 1.976241 2.329074
LeftShoulder  -10.916509 -8.066544 -23.281422
LeftArm  -1.170359 24.843362 -24.181736
LeftForeArm  27.300784 -0.000000 0.000000
LeftHand  6.476735 -12.571571 2.488909
LeftHandThumb  0.000000 -0.000000 0.000000
RightShoulder  0.143788 6.469495 19.007159
RightArm  0.234107 -23.030362 22.422652
RightForeArm  21.237865 -0.000000 0.000000
RightHand  3.588285 7.610044 -1.052554
RightHandThumb  0.000000 -0.000000 0.000000
125
root  -0.519679 37.567162 -81.726267 8.106029 -0.900679 -2.768909
LeftUpLeg  -11.149693 9.288859 2.548608
LeftLeg  19.904106 -0.000000 0.000000
LeftFoot  -3.417574 12.842940 6.958004
LeftToeBase  -12.789459 0.000000 -0.000000
RightUpLeg  -12.348887 -26.933728 8.534770
RightLeg  18.552636 -0.000000 0.000000
RightFoot  -5.609225 5.547659 -17.578977
RightToeBase  -10.883683 0.000000 -0.000000
Spine  -15.123588 -2.818536 0.801283
Spine1  14.451129 -1.589017 3.926536
Neck  11.918492 3.233379 -6.151480
Head  -11.895673 1.643611 2.394872
LeftShoulder  -10.910206 -8.318877 -23.385878
LeftArm  -1.314543 25.670947 -24.578380
LeftForeArm  27.507395 -0.000000 0.000000
LeftHand  7.266676 -12.405814 2.306123
LeftHandThumb  0.000000 -0.000000 0.000000
RightShoulder  0.181694 6.449420 19.150034
RightArm  0.224538 -23.749158 22.788337
RightForeArm  21.577570 -0.000000 0.000000
RightHand  3.878857 8.599900 -0.791377
RightHandThumb  0.000000 -0.000000 0.000000
126
root  -0.551770 37.556587 -81.689627 8.076155 -1.079557 -2.781869
LeftUpLeg  -11.391934 9.470908 2.599260
LeftLeg  20.600610 -0.000000 0.000000
LeftFoot  -3.420766 12.927632 7.125819
LeftToeBase  -13.196867 0.000000 -0.000000
RightUpLeg  -12.299657 -27.002162 8.522330
RightLeg  18.692906 -0.000000 0.000000
RightFoot  -5.733397 5.753450 -17.490901
RightToeBase  -10.803688 0.000000 -0.000000
Spine  -15.116398 -2.799049 0.825919
Spine1  14.509004 -1.582027 3.960283
Neck  11.881628 3.406161 -6.232127
Head  -12.027568 1.848294 2.277917
LeftShoulder  -11.007160 -8.106633 -23.504486
LeftArm  -1.268848 25.903468 -24.981405
LeftForeArm  28.026433 -0.000000 0.000000
LeftHand  7.156835 -12.437284 2.286202
LeftHandThumb  0.000000 -0.000000 0.000000
RightShoulder  0.191887 6.383524 19.245932
RightArm  0.288342 -24.331745 23.201950
RightForeArm  22.170946 -0.000000 0.000000
RightHand  3.731176 7.980903 -0.758098
RightHandThumb  0.000000 -0.000000 0.000000
127
root  -0.577555 37.550594 -81.658340 8.052509 -1.182796 -2.787320
LeftUpLeg  -11.565404 9.663580 2.619648
LeftLeg  21.056668 -0.000000 0.000000
LeftFoot  -3.548682 12.898479 6.809030
LeftToeBase  -13.053450 0.000000 -0.000000
RightUpLeg  -12.259256 -26.993540 8.500158
RightLeg  18.798646 -0.000000 0.000000
RightFoot  -5.943864 5.834556 -17.536786
RightToeBase  -11.179249 0.000000 -0.000000
Spine  -15.110036 -2.769431 0.855397
Spine1  14.545853 -1.565967 4.002522
Neck  11.852714 3.737864 -6.286726
Head  -11.844858 2.121292 2.232824
LeftShoulder  -10.999633 -8.277654 -23.608290
LeftArm  -1.400386 26.682141 -25.366333
LeftForeArm  28.331367 -0.000000 0.000000
LeftHand  7.651124 -12.280005 2.392923
LeftHandThumb  0.000000 -0.000000 0.000000
RightShoulder  0.225279 6.327993 19.389695
RightArm  0.289067 -24.996734 23.549056
RightForeArm  22.548331 -0.000000 0.000000
RightHand  4.294228 8.938746 -0.611590
RightHandThumb  0.000000 -0.000000 0.000000
128
root  -0.607638 37.538719 -81.621633 8.023982 -1.355792 -2.800629
LeftUpLeg  -11.819979 9.827218 2.675289
LeftLeg  21.764659 -0.000000 0.000000
LeftFoot  -3.447704 13.016314 7.169948
LeftToeBase  -13.697161 0.000000 -0.000000
RightUpLeg  -12.192244 -27.090139 8.482725
RightLeg  18.894245 -0.000000 0.000000
RightFoot  -6.073308 6.094730 -17.463488
RightToeBase  -11.141812 0.000000 -0.000000
Spine  -15.096979 -2.739887 0.889134
Spine1  14.606426 -1.552962 4.041995
Neck  11.827759 3.703413 -6.426299
Head  -11.982439 2.060121 2.180379
LeftShoulder  -11.100081 -8.062894 -23.714457
LeftArm  -1.353919 26.868901 -25.772077
LeftForeArm  29.091416 -0.000000 0.000000
LeftHand  6.882360 -12.206330 2.543500
LeftHandThumb  0.000000 -0.000000 0.000000
RightShoulder  0.247161 6.292995 19.486574
RightArm  0.333861 -25.616895 23.930351
RightForeArm  23.081042 -0.000000 0.000000
RightHand  4.068099 8.390772 -0.576214
RightHandThumb  0.000000 -0.000000 0.000000
129
root  -0.634969 37.532041 -81.590000 7.994454 -1.466530 -2.810078
LeftUpLeg  -12.027226 9.954366 2.706046
LeftLeg  22.273523 -0.000000 0.000000
LeftFoot  -3.372892 13.117826 6.903882
LeftToeBase  -13.752911 0.000000 -0.000000
RightUpLeg  -12.142093 -27.136380 8.459606
RightLeg  19.015350 -0.000000 0.000000
RightFoot  -6.333498 6.283094 -17.711494
RightToeBase  -11.190828 0.000000 -0.000000
Spine  -15.088890 -2.710165 0.921985
Spine1  14.635068 -1.537716 4.086283
Neck  11.784027 3.804142 -6.484487
Head  -11.876769 2.127589 2.198798
LeftShoulder  -11.081629 -8.302344 -23.805629
LeftArm  -1.498348 27.663454 -26.173206
LeftForeArm  29.494435 -0.000000 0.000000
LeftHand  6.808560 -12.346166 2.698413
LeftHandThumb  0.000000 -0.000000 0.000000
RightShoulder  0.288696 6.291912 19.627248
RightArm  0.331523 -26.233753 24.287270
RightForeArm  23.415891 -0.000000 0.000000
RightHand  4.388592 9.365817 -0.418364
RightHandThumb  0.000000 -0.000000 0.000000
